<?xml version="1.0"?>
<svg xmlns="http://www.w3.org/2000/svg" version="1" viewBox="0 0 24 24" enable-background="new 0 0 24 24">
    <path d="M 12.09375 5.90625 C 11.29375 5.90625 11.29375 6.99375 12.09375 7.09375 C 12.281175 7.1249874 12.531412 7.1637219 12.875 7.21875 C 10.35761 7.9238281 8.59375 9.59375 8.59375 9.59375 C 8.59375 9.59375 8.7125 9 7.8125 9 C 5.2125 9 4 8.8 4 10 C 2.3 10 2 10.7 2 12 C 2.9938825 12 3.7701498 12.067612 4.4375 12.1875 C 3.0457276 12.652295 2 13.973214 2 15.5 C 2 17.4 3.6 19 5.5 19 C 7.4 19 9 17.4 9 15.5 C 9 15.2625 8.9849609 15.038086 8.9375 14.8125 C 9.3033185 14.927985 9.720977 15 10.1875 15 L 12.90625 15 C 13.70625 15 14.8875 14.6875 15.1875 13.1875 L 15.53125 11.40625 L 16.28125 12.8125 C 15.505301 13.46004 15 14.435412 15 15.5 C 15 17.4 16.6 19 18.5 19 C 20.4 19 22 17.4 22 15.5 C 22 13.6 20.4 12 18.5 12 C 18.184464 12 17.886784 12.042699 17.59375 12.125 L 16 9.03125 C 16.000887 9.0075164 15.998173 8.9664324 16 8.9375 C 16.221769 8.9769383 16.443213 9 16.6875 9 C 17.9875 9 18 9 18 7.5 C 18 6 17.9875 6 16.6875 6 C 15.78927 6 15.03371 6.3009157 14.59375 6.71875 C 14.236909 6.5857473 12.367038 5.90625 12.09375 5.90625 z M 5.5 13.5 C 5.775 13.5 6.0421875 13.554688 6.28125 13.65625 L 4.96875 14.96875 A 0.75130096 0.75130096 0 1 0 6.03125 16.03125 L 7.34375 14.75 C 7.4382181 14.981775 7.5 15.235313 7.5 15.5 C 7.5 16.6 6.6 17.5 5.5 17.5 C 4.4 17.5 3.5 16.6 3.5 15.5 C 3.5 14.4 4.4 13.5 5.5 13.5 z M 18.3125 13.5 C 18.37414 13.494211 18.436912 13.5 18.5 13.5 C 19.6 13.5 20.5 14.4 20.5 15.5 C 20.5 16.6 19.6 17.5 18.5 17.5 C 17.4 17.5 16.5 16.6 16.5 15.5 C 16.5 15.006897 16.701345 14.568416 17 14.21875 L 17.84375 15.84375 A 0.750075 0.750075 0 1 0 19.15625 15.15625 L 18.3125 13.5 z"/>
</svg>
